%TF.GenerationSoftware,KiCad,Pcbnew,5.1.6-c6e7f7d~86~ubuntu19.10.1*%
%TF.CreationDate,2020-07-11T11:49:28-04:00*%
%TF.ProjectId,ATtiny85-WS2812-Controller,41547469-6e79-4383-952d-575332383132,rev?*%
%TF.SameCoordinates,Original*%
%TF.FileFunction,Copper,L2,Bot*%
%TF.FilePolarity,Positive*%
%FSLAX46Y46*%
G04 Gerber Fmt 4.6, Leading zero omitted, Abs format (unit mm)*
G04 Created by KiCad (PCBNEW 5.1.6-c6e7f7d~86~ubuntu19.10.1) date 2020-07-11 11:49:28*
%MOMM*%
%LPD*%
G01*
G04 APERTURE LIST*
%TA.AperFunction,ComponentPad*%
%ADD10O,1.600000X1.600000*%
%TD*%
%TA.AperFunction,ComponentPad*%
%ADD11R,1.600000X1.600000*%
%TD*%
%TA.AperFunction,ComponentPad*%
%ADD12C,2.000000*%
%TD*%
%TA.AperFunction,ComponentPad*%
%ADD13C,1.600000*%
%TD*%
%TA.AperFunction,ComponentPad*%
%ADD14O,1.950000X1.700000*%
%TD*%
%TA.AperFunction,ComponentPad*%
%ADD15R,3.500000X3.500000*%
%TD*%
%TA.AperFunction,ComponentPad*%
%ADD16C,1.800000*%
%TD*%
%TA.AperFunction,ComponentPad*%
%ADD17R,1.800000X1.800000*%
%TD*%
%TA.AperFunction,Conductor*%
%ADD18C,0.750000*%
%TD*%
%TA.AperFunction,Conductor*%
%ADD19C,0.250000*%
%TD*%
G04 APERTURE END LIST*
D10*
%TO.P,U1,8*%
%TO.N,+5V*%
X114046000Y-68580000D03*
%TO.P,U1,4*%
%TO.N,GND*%
X106426000Y-60960000D03*
%TO.P,U1,7*%
%TO.N,Net-(R1-Pad2)*%
X111506000Y-68580000D03*
%TO.P,U1,3*%
%TO.N,N/C*%
X108966000Y-60960000D03*
%TO.P,U1,6*%
X108966000Y-68580000D03*
%TO.P,U1,2*%
%TO.N,Net-(SW2-Pad1)*%
X111506000Y-60960000D03*
%TO.P,U1,5*%
%TO.N,PDATA*%
X106426000Y-68580000D03*
D11*
%TO.P,U1,1*%
%TO.N,Net-(SW1-Pad1)*%
X114046000Y-60960000D03*
%TD*%
D12*
%TO.P,SW2,1*%
%TO.N,Net-(SW2-Pad1)*%
X105306000Y-74930000D03*
%TO.P,SW2,2*%
%TO.N,GND*%
X105306000Y-79430000D03*
%TO.P,SW2,1*%
%TO.N,Net-(SW2-Pad1)*%
X98806000Y-74930000D03*
%TO.P,SW2,2*%
%TO.N,GND*%
X98806000Y-79430000D03*
%TD*%
%TO.P,SW1,1*%
%TO.N,Net-(SW1-Pad1)*%
X116990000Y-75184000D03*
%TO.P,SW1,2*%
%TO.N,GND*%
X116990000Y-79684000D03*
%TO.P,SW1,1*%
%TO.N,Net-(SW1-Pad1)*%
X110490000Y-75184000D03*
%TO.P,SW1,2*%
%TO.N,GND*%
X110490000Y-79684000D03*
%TD*%
D10*
%TO.P,R1,2*%
%TO.N,Net-(R1-Pad2)*%
X120904000Y-71374000D03*
D13*
%TO.P,R1,1*%
%TO.N,Net-(D1-Pad2)*%
X128524000Y-71374000D03*
%TD*%
D14*
%TO.P,J2,3*%
%TO.N,GND*%
X96266000Y-62564000D03*
%TO.P,J2,2*%
%TO.N,PDATA*%
X96266000Y-65064000D03*
%TO.P,J2,1*%
%TO.N,+5V*%
%TA.AperFunction,ComponentPad*%
G36*
G01*
X96991000Y-68414000D02*
X95541000Y-68414000D01*
G75*
G02*
X95291000Y-68164000I0J250000D01*
G01*
X95291000Y-66964000D01*
G75*
G02*
X95541000Y-66714000I250000J0D01*
G01*
X96991000Y-66714000D01*
G75*
G02*
X97241000Y-66964000I0J-250000D01*
G01*
X97241000Y-68164000D01*
G75*
G02*
X96991000Y-68414000I-250000J0D01*
G01*
G37*
%TD.AperFunction*%
%TD*%
%TO.P,J1,3*%
%TO.N,N/C*%
%TA.AperFunction,ComponentPad*%
G36*
G01*
X135649000Y-64338000D02*
X137399000Y-64338000D01*
G75*
G02*
X138274000Y-65213000I0J-875000D01*
G01*
X138274000Y-66963000D01*
G75*
G02*
X137399000Y-67838000I-875000J0D01*
G01*
X135649000Y-67838000D01*
G75*
G02*
X134774000Y-66963000I0J875000D01*
G01*
X134774000Y-65213000D01*
G75*
G02*
X135649000Y-64338000I875000J0D01*
G01*
G37*
%TD.AperFunction*%
%TO.P,J1,2*%
%TO.N,GND*%
%TA.AperFunction,ComponentPad*%
G36*
G01*
X140224000Y-61588000D02*
X142224000Y-61588000D01*
G75*
G02*
X142974000Y-62338000I0J-750000D01*
G01*
X142974000Y-63838000D01*
G75*
G02*
X142224000Y-64588000I-750000J0D01*
G01*
X140224000Y-64588000D01*
G75*
G02*
X139474000Y-63838000I0J750000D01*
G01*
X139474000Y-62338000D01*
G75*
G02*
X140224000Y-61588000I750000J0D01*
G01*
G37*
%TD.AperFunction*%
D15*
%TO.P,J1,1*%
%TO.N,+5V*%
X141224000Y-69088000D03*
%TD*%
D16*
%TO.P,D1,2*%
%TO.N,Net-(D1-Pad2)*%
X127508000Y-77978000D03*
D17*
%TO.P,D1,1*%
%TO.N,GND*%
X124968000Y-77978000D03*
%TD*%
D13*
%TO.P,C2,2*%
%TO.N,GND*%
X121666000Y-61040000D03*
%TO.P,C2,1*%
%TO.N,+5V*%
X121666000Y-66040000D03*
%TD*%
%TO.P,C1,2*%
%TO.N,GND*%
X129286000Y-62270000D03*
D11*
%TO.P,C1,1*%
%TO.N,+5V*%
X129286000Y-64770000D03*
%TD*%
D18*
%TO.N,GND*%
X130104000Y-63088000D02*
X129286000Y-62270000D01*
X141224000Y-63088000D02*
X130104000Y-63088000D01*
X122896000Y-62270000D02*
X121666000Y-61040000D01*
X129286000Y-62270000D02*
X122896000Y-62270000D01*
X121666000Y-61040000D02*
X119554000Y-58928000D01*
X108458000Y-58928000D02*
X106426000Y-60960000D01*
X119554000Y-58928000D02*
X108458000Y-58928000D01*
X97870000Y-60960000D02*
X96266000Y-62564000D01*
X106426000Y-60960000D02*
X97870000Y-60960000D01*
D19*
X118696000Y-77978000D02*
X116990000Y-79684000D01*
X124968000Y-77978000D02*
X118696000Y-77978000D01*
X116990000Y-79684000D02*
X110490000Y-79684000D01*
X105560000Y-79684000D02*
X105306000Y-79430000D01*
X110490000Y-79684000D02*
X105560000Y-79684000D01*
X105306000Y-79430000D02*
X98806000Y-79430000D01*
X124968000Y-64342000D02*
X124968000Y-77978000D01*
X121666000Y-61040000D02*
X124968000Y-64342000D01*
D18*
%TO.N,+5V*%
X114126000Y-68580000D02*
X113538000Y-68580000D01*
D19*
%TO.N,Net-(R1-Pad2)*%
X114300000Y-71374000D02*
X120904000Y-71374000D01*
X111506000Y-68580000D02*
X114300000Y-71374000D01*
%TO.N,Net-(SW1-Pad1)*%
X114046000Y-60960000D02*
X114046000Y-61976000D01*
X114046000Y-61976000D02*
X122936000Y-70866000D01*
X122936000Y-70866000D02*
X122936000Y-71882000D01*
X119634000Y-75184000D02*
X116990000Y-75184000D01*
X122936000Y-71882000D02*
X119634000Y-75184000D01*
X110490000Y-75184000D02*
X116990000Y-75184000D01*
%TO.N,Net-(SW2-Pad1)*%
X111506000Y-60960000D02*
X110236000Y-62230000D01*
X110236000Y-70000000D02*
X105306000Y-74930000D01*
X110236000Y-62230000D02*
X110236000Y-70000000D01*
X98806000Y-74930000D02*
X105306000Y-74930000D01*
%TD*%
M02*
