%TF.GenerationSoftware,KiCad,Pcbnew,5.1.6-c6e7f7d~86~ubuntu19.10.1*%
%TF.CreationDate,2020-07-11T11:49:28-04:00*%
%TF.ProjectId,ATtiny85-WS2812-Controller,41547469-6e79-4383-952d-575332383132,rev?*%
%TF.SameCoordinates,Original*%
%TF.FileFunction,Legend,Top*%
%TF.FilePolarity,Positive*%
%FSLAX46Y46*%
G04 Gerber Fmt 4.6, Leading zero omitted, Abs format (unit mm)*
G04 Created by KiCad (PCBNEW 5.1.6-c6e7f7d~86~ubuntu19.10.1) date 2020-07-11 11:49:28*
%MOMM*%
%LPD*%
G01*
G04 APERTURE LIST*
%ADD10C,0.750000*%
%ADD11C,0.150000*%
%ADD12C,0.120000*%
G04 APERTURE END LIST*
D10*
X117190000Y-60706000D02*
G75*
G03*
X117190000Y-60706000I-350000J0D01*
G01*
D11*
X131778571Y-58634380D02*
X131302380Y-58634380D01*
X131254761Y-59110571D01*
X131302380Y-59062952D01*
X131397619Y-59015333D01*
X131635714Y-59015333D01*
X131730952Y-59062952D01*
X131778571Y-59110571D01*
X131826190Y-59205809D01*
X131826190Y-59443904D01*
X131778571Y-59539142D01*
X131730952Y-59586761D01*
X131635714Y-59634380D01*
X131397619Y-59634380D01*
X131302380Y-59586761D01*
X131254761Y-59539142D01*
X132111904Y-58634380D02*
X132445238Y-59634380D01*
X132778571Y-58634380D01*
X133873809Y-59634380D02*
X133873809Y-58634380D01*
X134111904Y-58634380D01*
X134254761Y-58682000D01*
X134350000Y-58777238D01*
X134397619Y-58872476D01*
X134445238Y-59062952D01*
X134445238Y-59205809D01*
X134397619Y-59396285D01*
X134350000Y-59491523D01*
X134254761Y-59586761D01*
X134111904Y-59634380D01*
X133873809Y-59634380D01*
X135445238Y-59539142D02*
X135397619Y-59586761D01*
X135254761Y-59634380D01*
X135159523Y-59634380D01*
X135016666Y-59586761D01*
X134921428Y-59491523D01*
X134873809Y-59396285D01*
X134826190Y-59205809D01*
X134826190Y-59062952D01*
X134873809Y-58872476D01*
X134921428Y-58777238D01*
X135016666Y-58682000D01*
X135159523Y-58634380D01*
X135254761Y-58634380D01*
X135397619Y-58682000D01*
X135445238Y-58729619D01*
X129493238Y-81240380D02*
X129731333Y-82240380D01*
X129921809Y-81526095D01*
X130112285Y-82240380D01*
X130350380Y-81240380D01*
X130683714Y-82192761D02*
X130826571Y-82240380D01*
X131064666Y-82240380D01*
X131159904Y-82192761D01*
X131207523Y-82145142D01*
X131255142Y-82049904D01*
X131255142Y-81954666D01*
X131207523Y-81859428D01*
X131159904Y-81811809D01*
X131064666Y-81764190D01*
X130874190Y-81716571D01*
X130778952Y-81668952D01*
X130731333Y-81621333D01*
X130683714Y-81526095D01*
X130683714Y-81430857D01*
X130731333Y-81335619D01*
X130778952Y-81288000D01*
X130874190Y-81240380D01*
X131112285Y-81240380D01*
X131255142Y-81288000D01*
X131636095Y-81335619D02*
X131683714Y-81288000D01*
X131778952Y-81240380D01*
X132017047Y-81240380D01*
X132112285Y-81288000D01*
X132159904Y-81335619D01*
X132207523Y-81430857D01*
X132207523Y-81526095D01*
X132159904Y-81668952D01*
X131588476Y-82240380D01*
X132207523Y-82240380D01*
X132778952Y-81668952D02*
X132683714Y-81621333D01*
X132636095Y-81573714D01*
X132588476Y-81478476D01*
X132588476Y-81430857D01*
X132636095Y-81335619D01*
X132683714Y-81288000D01*
X132778952Y-81240380D01*
X132969428Y-81240380D01*
X133064666Y-81288000D01*
X133112285Y-81335619D01*
X133159904Y-81430857D01*
X133159904Y-81478476D01*
X133112285Y-81573714D01*
X133064666Y-81621333D01*
X132969428Y-81668952D01*
X132778952Y-81668952D01*
X132683714Y-81716571D01*
X132636095Y-81764190D01*
X132588476Y-81859428D01*
X132588476Y-82049904D01*
X132636095Y-82145142D01*
X132683714Y-82192761D01*
X132778952Y-82240380D01*
X132969428Y-82240380D01*
X133064666Y-82192761D01*
X133112285Y-82145142D01*
X133159904Y-82049904D01*
X133159904Y-81859428D01*
X133112285Y-81764190D01*
X133064666Y-81716571D01*
X132969428Y-81668952D01*
X134112285Y-82240380D02*
X133540857Y-82240380D01*
X133826571Y-82240380D02*
X133826571Y-81240380D01*
X133731333Y-81383238D01*
X133636095Y-81478476D01*
X133540857Y-81526095D01*
X134493238Y-81335619D02*
X134540857Y-81288000D01*
X134636095Y-81240380D01*
X134874190Y-81240380D01*
X134969428Y-81288000D01*
X135017047Y-81335619D01*
X135064666Y-81430857D01*
X135064666Y-81526095D01*
X135017047Y-81668952D01*
X134445619Y-82240380D01*
X135064666Y-82240380D01*
X136826571Y-82145142D02*
X136778952Y-82192761D01*
X136636095Y-82240380D01*
X136540857Y-82240380D01*
X136398000Y-82192761D01*
X136302761Y-82097523D01*
X136255142Y-82002285D01*
X136207523Y-81811809D01*
X136207523Y-81668952D01*
X136255142Y-81478476D01*
X136302761Y-81383238D01*
X136398000Y-81288000D01*
X136540857Y-81240380D01*
X136636095Y-81240380D01*
X136778952Y-81288000D01*
X136826571Y-81335619D01*
X137398000Y-82240380D02*
X137302761Y-82192761D01*
X137255142Y-82145142D01*
X137207523Y-82049904D01*
X137207523Y-81764190D01*
X137255142Y-81668952D01*
X137302761Y-81621333D01*
X137398000Y-81573714D01*
X137540857Y-81573714D01*
X137636095Y-81621333D01*
X137683714Y-81668952D01*
X137731333Y-81764190D01*
X137731333Y-82049904D01*
X137683714Y-82145142D01*
X137636095Y-82192761D01*
X137540857Y-82240380D01*
X137398000Y-82240380D01*
X138159904Y-81573714D02*
X138159904Y-82240380D01*
X138159904Y-81668952D02*
X138207523Y-81621333D01*
X138302761Y-81573714D01*
X138445619Y-81573714D01*
X138540857Y-81621333D01*
X138588476Y-81716571D01*
X138588476Y-82240380D01*
X138921809Y-81573714D02*
X139302761Y-81573714D01*
X139064666Y-81240380D02*
X139064666Y-82097523D01*
X139112285Y-82192761D01*
X139207523Y-82240380D01*
X139302761Y-82240380D01*
X139636095Y-82240380D02*
X139636095Y-81573714D01*
X139636095Y-81764190D02*
X139683714Y-81668952D01*
X139731333Y-81621333D01*
X139826571Y-81573714D01*
X139921809Y-81573714D01*
X140398000Y-82240380D02*
X140302761Y-82192761D01*
X140255142Y-82145142D01*
X140207523Y-82049904D01*
X140207523Y-81764190D01*
X140255142Y-81668952D01*
X140302761Y-81621333D01*
X140398000Y-81573714D01*
X140540857Y-81573714D01*
X140636095Y-81621333D01*
X140683714Y-81668952D01*
X140731333Y-81764190D01*
X140731333Y-82049904D01*
X140683714Y-82145142D01*
X140636095Y-82192761D01*
X140540857Y-82240380D01*
X140398000Y-82240380D01*
X141302761Y-82240380D02*
X141207523Y-82192761D01*
X141159904Y-82097523D01*
X141159904Y-81240380D01*
X141826571Y-82240380D02*
X141731333Y-82192761D01*
X141683714Y-82097523D01*
X141683714Y-81240380D01*
X142588476Y-82192761D02*
X142493238Y-82240380D01*
X142302761Y-82240380D01*
X142207523Y-82192761D01*
X142159904Y-82097523D01*
X142159904Y-81716571D01*
X142207523Y-81621333D01*
X142302761Y-81573714D01*
X142493238Y-81573714D01*
X142588476Y-81621333D01*
X142636095Y-81716571D01*
X142636095Y-81811809D01*
X142159904Y-81907047D01*
X143064666Y-82240380D02*
X143064666Y-81573714D01*
X143064666Y-81764190D02*
X143112285Y-81668952D01*
X143159904Y-81621333D01*
X143255142Y-81573714D01*
X143350380Y-81573714D01*
X112085619Y-72588380D02*
X111752285Y-72112190D01*
X111514190Y-72588380D02*
X111514190Y-71588380D01*
X111895142Y-71588380D01*
X111990380Y-71636000D01*
X112038000Y-71683619D01*
X112085619Y-71778857D01*
X112085619Y-71921714D01*
X112038000Y-72016952D01*
X111990380Y-72064571D01*
X111895142Y-72112190D01*
X111514190Y-72112190D01*
X112514190Y-72064571D02*
X112847523Y-72064571D01*
X112990380Y-72588380D02*
X112514190Y-72588380D01*
X112514190Y-71588380D01*
X112990380Y-71588380D01*
X113371333Y-72540761D02*
X113514190Y-72588380D01*
X113752285Y-72588380D01*
X113847523Y-72540761D01*
X113895142Y-72493142D01*
X113942761Y-72397904D01*
X113942761Y-72302666D01*
X113895142Y-72207428D01*
X113847523Y-72159809D01*
X113752285Y-72112190D01*
X113561809Y-72064571D01*
X113466571Y-72016952D01*
X113418952Y-71969333D01*
X113371333Y-71874095D01*
X113371333Y-71778857D01*
X113418952Y-71683619D01*
X113466571Y-71636000D01*
X113561809Y-71588380D01*
X113799904Y-71588380D01*
X113942761Y-71636000D01*
X114371333Y-72064571D02*
X114704666Y-72064571D01*
X114847523Y-72588380D02*
X114371333Y-72588380D01*
X114371333Y-71588380D01*
X114847523Y-71588380D01*
X115133238Y-71588380D02*
X115704666Y-71588380D01*
X115418952Y-72588380D02*
X115418952Y-71588380D01*
X100298476Y-72588380D02*
X100298476Y-71588380D01*
X100631809Y-72302666D01*
X100965142Y-71588380D01*
X100965142Y-72588380D01*
X101631809Y-71588380D02*
X101822285Y-71588380D01*
X101917523Y-71636000D01*
X102012761Y-71731238D01*
X102060380Y-71921714D01*
X102060380Y-72255047D01*
X102012761Y-72445523D01*
X101917523Y-72540761D01*
X101822285Y-72588380D01*
X101631809Y-72588380D01*
X101536571Y-72540761D01*
X101441333Y-72445523D01*
X101393714Y-72255047D01*
X101393714Y-71921714D01*
X101441333Y-71731238D01*
X101536571Y-71636000D01*
X101631809Y-71588380D01*
X102488952Y-72588380D02*
X102488952Y-71588380D01*
X102727047Y-71588380D01*
X102869904Y-71636000D01*
X102965142Y-71731238D01*
X103012761Y-71826476D01*
X103060380Y-72016952D01*
X103060380Y-72159809D01*
X103012761Y-72350285D01*
X102965142Y-72445523D01*
X102869904Y-72540761D01*
X102727047Y-72588380D01*
X102488952Y-72588380D01*
X103488952Y-72064571D02*
X103822285Y-72064571D01*
X103965142Y-72588380D02*
X103488952Y-72588380D01*
X103488952Y-71588380D01*
X103965142Y-71588380D01*
D12*
%TO.C,U1*%
X115376000Y-65770000D02*
G75*
G02*
X115376000Y-63770000I0J1000000D01*
G01*
X115376000Y-63770000D02*
X115376000Y-62120000D01*
X115376000Y-62120000D02*
X105096000Y-62120000D01*
X105096000Y-62120000D02*
X105096000Y-67420000D01*
X105096000Y-67420000D02*
X115376000Y-67420000D01*
X115376000Y-67420000D02*
X115376000Y-65770000D01*
%TO.C,SW2*%
X99806000Y-80430000D02*
X104306000Y-80430000D01*
X98556000Y-76430000D02*
X98556000Y-77930000D01*
X104306000Y-73930000D02*
X99806000Y-73930000D01*
X105556000Y-77930000D02*
X105556000Y-76430000D01*
%TO.C,SW1*%
X111490000Y-80684000D02*
X115990000Y-80684000D01*
X110240000Y-76684000D02*
X110240000Y-78184000D01*
X115990000Y-74184000D02*
X111490000Y-74184000D01*
X117240000Y-78184000D02*
X117240000Y-76684000D01*
%TO.C,R1*%
X127984000Y-72414000D02*
X127984000Y-72744000D01*
X127984000Y-72744000D02*
X121444000Y-72744000D01*
X121444000Y-72744000D02*
X121444000Y-72414000D01*
X127984000Y-70334000D02*
X127984000Y-70004000D01*
X127984000Y-70004000D02*
X121444000Y-70004000D01*
X121444000Y-70004000D02*
X121444000Y-70334000D01*
%TO.C,J2*%
X95676000Y-68954000D02*
X97876000Y-68954000D01*
X97876000Y-68954000D02*
X97876000Y-70174000D01*
X97876000Y-70174000D02*
X89456000Y-70174000D01*
X89456000Y-70174000D02*
X89456000Y-59954000D01*
X89456000Y-59954000D02*
X97876000Y-59954000D01*
X97876000Y-59954000D02*
X97876000Y-61174000D01*
X97876000Y-61174000D02*
X95676000Y-61174000D01*
X90676000Y-70174000D02*
X90676000Y-68954000D01*
X90676000Y-68954000D02*
X95676000Y-68954000D01*
X95676000Y-68954000D02*
X95676000Y-70174000D01*
X90676000Y-59954000D02*
X90676000Y-61174000D01*
X90676000Y-61174000D02*
X95676000Y-61174000D01*
X95676000Y-61174000D02*
X95676000Y-59954000D01*
X94676000Y-68954000D02*
X94676000Y-61174000D01*
X94676000Y-67564000D02*
X94676000Y-67884000D01*
X94676000Y-67884000D02*
X91256000Y-67884000D01*
X91256000Y-67884000D02*
X91176000Y-67564000D01*
X91176000Y-67564000D02*
X91256000Y-67244000D01*
X91256000Y-67244000D02*
X94676000Y-67244000D01*
X94676000Y-67244000D02*
X94676000Y-67564000D01*
X95676000Y-66394000D02*
X95676000Y-66234000D01*
X94676000Y-65064000D02*
X94676000Y-65384000D01*
X94676000Y-65384000D02*
X91256000Y-65384000D01*
X91256000Y-65384000D02*
X91176000Y-65064000D01*
X91176000Y-65064000D02*
X91256000Y-64744000D01*
X91256000Y-64744000D02*
X94676000Y-64744000D01*
X94676000Y-64744000D02*
X94676000Y-65064000D01*
X95676000Y-63894000D02*
X95676000Y-63734000D01*
X94676000Y-62564000D02*
X94676000Y-62884000D01*
X94676000Y-62884000D02*
X91256000Y-62884000D01*
X91256000Y-62884000D02*
X91176000Y-62564000D01*
X91176000Y-62564000D02*
X91256000Y-62244000D01*
X91256000Y-62244000D02*
X94676000Y-62244000D01*
X94676000Y-62244000D02*
X94676000Y-62564000D01*
X97766000Y-67564000D02*
X98366000Y-67864000D01*
X98366000Y-67864000D02*
X98366000Y-67264000D01*
X98366000Y-67264000D02*
X97766000Y-67564000D01*
%TO.C,J1*%
X144974000Y-70188000D02*
X146024000Y-70188000D01*
X146024000Y-69138000D02*
X146024000Y-70188000D01*
X136624000Y-64088000D02*
X136624000Y-55288000D01*
X136624000Y-55288000D02*
X145824000Y-55288000D01*
X139324000Y-69988000D02*
X136624000Y-69988000D01*
X136624000Y-69988000D02*
X136624000Y-68088000D01*
X145824000Y-55288000D02*
X145824000Y-69988000D01*
X145824000Y-69988000D02*
X143224000Y-69988000D01*
%TO.C,D1*%
X129228000Y-77977538D02*
G75*
G02*
X123678000Y-79522830I-2990000J-462D01*
G01*
X129228000Y-77978462D02*
G75*
G03*
X123678000Y-76433170I-2990000J462D01*
G01*
X128738000Y-77978000D02*
G75*
G03*
X128738000Y-77978000I-2500000J0D01*
G01*
X123678000Y-76433000D02*
X123678000Y-79523000D01*
%TO.C,C2*%
X120296000Y-66160000D02*
X120296000Y-60920000D01*
X123036000Y-66160000D02*
X123036000Y-60920000D01*
X120296000Y-66160000D02*
X120611000Y-66160000D01*
X122721000Y-66160000D02*
X123036000Y-66160000D01*
X120296000Y-60920000D02*
X120611000Y-60920000D01*
X122721000Y-60920000D02*
X123036000Y-60920000D01*
%TO.C,C1*%
X132556000Y-63520000D02*
G75*
G03*
X132556000Y-63520000I-3270000J0D01*
G01*
X126056000Y-63520000D02*
X132516000Y-63520000D01*
X126056000Y-63480000D02*
X132516000Y-63480000D01*
X126056000Y-63440000D02*
X132516000Y-63440000D01*
X126058000Y-63400000D02*
X132514000Y-63400000D01*
X126059000Y-63360000D02*
X132513000Y-63360000D01*
X126062000Y-63320000D02*
X132510000Y-63320000D01*
X126064000Y-63280000D02*
X128246000Y-63280000D01*
X130326000Y-63280000D02*
X132508000Y-63280000D01*
X126068000Y-63240000D02*
X128246000Y-63240000D01*
X130326000Y-63240000D02*
X132504000Y-63240000D01*
X126071000Y-63200000D02*
X128246000Y-63200000D01*
X130326000Y-63200000D02*
X132501000Y-63200000D01*
X126075000Y-63160000D02*
X128246000Y-63160000D01*
X130326000Y-63160000D02*
X132497000Y-63160000D01*
X126080000Y-63120000D02*
X128246000Y-63120000D01*
X130326000Y-63120000D02*
X132492000Y-63120000D01*
X126085000Y-63080000D02*
X128246000Y-63080000D01*
X130326000Y-63080000D02*
X132487000Y-63080000D01*
X126091000Y-63040000D02*
X128246000Y-63040000D01*
X130326000Y-63040000D02*
X132481000Y-63040000D01*
X126097000Y-63000000D02*
X128246000Y-63000000D01*
X130326000Y-63000000D02*
X132475000Y-63000000D01*
X126104000Y-62960000D02*
X128246000Y-62960000D01*
X130326000Y-62960000D02*
X132468000Y-62960000D01*
X126111000Y-62920000D02*
X128246000Y-62920000D01*
X130326000Y-62920000D02*
X132461000Y-62920000D01*
X126119000Y-62880000D02*
X128246000Y-62880000D01*
X130326000Y-62880000D02*
X132453000Y-62880000D01*
X126127000Y-62840000D02*
X128246000Y-62840000D01*
X130326000Y-62840000D02*
X132445000Y-62840000D01*
X126136000Y-62799000D02*
X128246000Y-62799000D01*
X130326000Y-62799000D02*
X132436000Y-62799000D01*
X126145000Y-62759000D02*
X128246000Y-62759000D01*
X130326000Y-62759000D02*
X132427000Y-62759000D01*
X126155000Y-62719000D02*
X128246000Y-62719000D01*
X130326000Y-62719000D02*
X132417000Y-62719000D01*
X126165000Y-62679000D02*
X128246000Y-62679000D01*
X130326000Y-62679000D02*
X132407000Y-62679000D01*
X126176000Y-62639000D02*
X128246000Y-62639000D01*
X130326000Y-62639000D02*
X132396000Y-62639000D01*
X126188000Y-62599000D02*
X128246000Y-62599000D01*
X130326000Y-62599000D02*
X132384000Y-62599000D01*
X126200000Y-62559000D02*
X128246000Y-62559000D01*
X130326000Y-62559000D02*
X132372000Y-62559000D01*
X126212000Y-62519000D02*
X128246000Y-62519000D01*
X130326000Y-62519000D02*
X132360000Y-62519000D01*
X126225000Y-62479000D02*
X128246000Y-62479000D01*
X130326000Y-62479000D02*
X132347000Y-62479000D01*
X126239000Y-62439000D02*
X128246000Y-62439000D01*
X130326000Y-62439000D02*
X132333000Y-62439000D01*
X126253000Y-62399000D02*
X128246000Y-62399000D01*
X130326000Y-62399000D02*
X132319000Y-62399000D01*
X126268000Y-62359000D02*
X128246000Y-62359000D01*
X130326000Y-62359000D02*
X132304000Y-62359000D01*
X126284000Y-62319000D02*
X128246000Y-62319000D01*
X130326000Y-62319000D02*
X132288000Y-62319000D01*
X126300000Y-62279000D02*
X128246000Y-62279000D01*
X130326000Y-62279000D02*
X132272000Y-62279000D01*
X126316000Y-62239000D02*
X128246000Y-62239000D01*
X130326000Y-62239000D02*
X132256000Y-62239000D01*
X126334000Y-62199000D02*
X128246000Y-62199000D01*
X130326000Y-62199000D02*
X132238000Y-62199000D01*
X126352000Y-62159000D02*
X128246000Y-62159000D01*
X130326000Y-62159000D02*
X132220000Y-62159000D01*
X126370000Y-62119000D02*
X128246000Y-62119000D01*
X130326000Y-62119000D02*
X132202000Y-62119000D01*
X126390000Y-62079000D02*
X128246000Y-62079000D01*
X130326000Y-62079000D02*
X132182000Y-62079000D01*
X126410000Y-62039000D02*
X128246000Y-62039000D01*
X130326000Y-62039000D02*
X132162000Y-62039000D01*
X126430000Y-61999000D02*
X128246000Y-61999000D01*
X130326000Y-61999000D02*
X132142000Y-61999000D01*
X126452000Y-61959000D02*
X128246000Y-61959000D01*
X130326000Y-61959000D02*
X132120000Y-61959000D01*
X126474000Y-61919000D02*
X128246000Y-61919000D01*
X130326000Y-61919000D02*
X132098000Y-61919000D01*
X126496000Y-61879000D02*
X128246000Y-61879000D01*
X130326000Y-61879000D02*
X132076000Y-61879000D01*
X126520000Y-61839000D02*
X128246000Y-61839000D01*
X130326000Y-61839000D02*
X132052000Y-61839000D01*
X126544000Y-61799000D02*
X128246000Y-61799000D01*
X130326000Y-61799000D02*
X132028000Y-61799000D01*
X126570000Y-61759000D02*
X128246000Y-61759000D01*
X130326000Y-61759000D02*
X132002000Y-61759000D01*
X126596000Y-61719000D02*
X128246000Y-61719000D01*
X130326000Y-61719000D02*
X131976000Y-61719000D01*
X126622000Y-61679000D02*
X128246000Y-61679000D01*
X130326000Y-61679000D02*
X131950000Y-61679000D01*
X126650000Y-61639000D02*
X128246000Y-61639000D01*
X130326000Y-61639000D02*
X131922000Y-61639000D01*
X126679000Y-61599000D02*
X128246000Y-61599000D01*
X130326000Y-61599000D02*
X131893000Y-61599000D01*
X126708000Y-61559000D02*
X128246000Y-61559000D01*
X130326000Y-61559000D02*
X131864000Y-61559000D01*
X126738000Y-61519000D02*
X128246000Y-61519000D01*
X130326000Y-61519000D02*
X131834000Y-61519000D01*
X126770000Y-61479000D02*
X128246000Y-61479000D01*
X130326000Y-61479000D02*
X131802000Y-61479000D01*
X126802000Y-61439000D02*
X128246000Y-61439000D01*
X130326000Y-61439000D02*
X131770000Y-61439000D01*
X126836000Y-61399000D02*
X128246000Y-61399000D01*
X130326000Y-61399000D02*
X131736000Y-61399000D01*
X126870000Y-61359000D02*
X128246000Y-61359000D01*
X130326000Y-61359000D02*
X131702000Y-61359000D01*
X126906000Y-61319000D02*
X128246000Y-61319000D01*
X130326000Y-61319000D02*
X131666000Y-61319000D01*
X126943000Y-61279000D02*
X128246000Y-61279000D01*
X130326000Y-61279000D02*
X131629000Y-61279000D01*
X126981000Y-61239000D02*
X128246000Y-61239000D01*
X130326000Y-61239000D02*
X131591000Y-61239000D01*
X127021000Y-61199000D02*
X131551000Y-61199000D01*
X127062000Y-61159000D02*
X131510000Y-61159000D01*
X127104000Y-61119000D02*
X131468000Y-61119000D01*
X127149000Y-61079000D02*
X131423000Y-61079000D01*
X127194000Y-61039000D02*
X131378000Y-61039000D01*
X127242000Y-60999000D02*
X131330000Y-60999000D01*
X127291000Y-60959000D02*
X131281000Y-60959000D01*
X127342000Y-60919000D02*
X131230000Y-60919000D01*
X127396000Y-60879000D02*
X131176000Y-60879000D01*
X127452000Y-60839000D02*
X131120000Y-60839000D01*
X127510000Y-60799000D02*
X131062000Y-60799000D01*
X127572000Y-60759000D02*
X131000000Y-60759000D01*
X127636000Y-60719000D02*
X130936000Y-60719000D01*
X127705000Y-60679000D02*
X130867000Y-60679000D01*
X127777000Y-60639000D02*
X130795000Y-60639000D01*
X127854000Y-60599000D02*
X130718000Y-60599000D01*
X127936000Y-60559000D02*
X130636000Y-60559000D01*
X128024000Y-60519000D02*
X130548000Y-60519000D01*
X128121000Y-60479000D02*
X130451000Y-60479000D01*
X128227000Y-60439000D02*
X130345000Y-60439000D01*
X128346000Y-60399000D02*
X130226000Y-60399000D01*
X128484000Y-60359000D02*
X130088000Y-60359000D01*
X128653000Y-60319000D02*
X129919000Y-60319000D01*
X128884000Y-60279000D02*
X129688000Y-60279000D01*
X127447000Y-67020241D02*
X127447000Y-66390241D01*
X127132000Y-66705241D02*
X127762000Y-66705241D01*
%TO.C,U1*%
D11*
X115828380Y-65531904D02*
X116637904Y-65531904D01*
X116733142Y-65484285D01*
X116780761Y-65436666D01*
X116828380Y-65341428D01*
X116828380Y-65150952D01*
X116780761Y-65055714D01*
X116733142Y-65008095D01*
X116637904Y-64960476D01*
X115828380Y-64960476D01*
X116828380Y-63960476D02*
X116828380Y-64531904D01*
X116828380Y-64246190D02*
X115828380Y-64246190D01*
X115971238Y-64341428D01*
X116066476Y-64436666D01*
X116114095Y-64531904D01*
%TO.C,SW2*%
X101028666Y-82192761D02*
X101171523Y-82240380D01*
X101409619Y-82240380D01*
X101504857Y-82192761D01*
X101552476Y-82145142D01*
X101600095Y-82049904D01*
X101600095Y-81954666D01*
X101552476Y-81859428D01*
X101504857Y-81811809D01*
X101409619Y-81764190D01*
X101219142Y-81716571D01*
X101123904Y-81668952D01*
X101076285Y-81621333D01*
X101028666Y-81526095D01*
X101028666Y-81430857D01*
X101076285Y-81335619D01*
X101123904Y-81288000D01*
X101219142Y-81240380D01*
X101457238Y-81240380D01*
X101600095Y-81288000D01*
X101933428Y-81240380D02*
X102171523Y-82240380D01*
X102362000Y-81526095D01*
X102552476Y-82240380D01*
X102790571Y-81240380D01*
X103123904Y-81335619D02*
X103171523Y-81288000D01*
X103266761Y-81240380D01*
X103504857Y-81240380D01*
X103600095Y-81288000D01*
X103647714Y-81335619D01*
X103695333Y-81430857D01*
X103695333Y-81526095D01*
X103647714Y-81668952D01*
X103076285Y-82240380D01*
X103695333Y-82240380D01*
%TO.C,SW1*%
X112458666Y-82446761D02*
X112601523Y-82494380D01*
X112839619Y-82494380D01*
X112934857Y-82446761D01*
X112982476Y-82399142D01*
X113030095Y-82303904D01*
X113030095Y-82208666D01*
X112982476Y-82113428D01*
X112934857Y-82065809D01*
X112839619Y-82018190D01*
X112649142Y-81970571D01*
X112553904Y-81922952D01*
X112506285Y-81875333D01*
X112458666Y-81780095D01*
X112458666Y-81684857D01*
X112506285Y-81589619D01*
X112553904Y-81542000D01*
X112649142Y-81494380D01*
X112887238Y-81494380D01*
X113030095Y-81542000D01*
X113363428Y-81494380D02*
X113601523Y-82494380D01*
X113792000Y-81780095D01*
X113982476Y-82494380D01*
X114220571Y-81494380D01*
X115125333Y-82494380D02*
X114553904Y-82494380D01*
X114839619Y-82494380D02*
X114839619Y-81494380D01*
X114744380Y-81637238D01*
X114649142Y-81732476D01*
X114553904Y-81780095D01*
%TO.C,R1*%
X124801333Y-69286380D02*
X124468000Y-68810190D01*
X124229904Y-69286380D02*
X124229904Y-68286380D01*
X124610857Y-68286380D01*
X124706095Y-68334000D01*
X124753714Y-68381619D01*
X124801333Y-68476857D01*
X124801333Y-68619714D01*
X124753714Y-68714952D01*
X124706095Y-68762571D01*
X124610857Y-68810190D01*
X124229904Y-68810190D01*
X125753714Y-69286380D02*
X125182285Y-69286380D01*
X125468000Y-69286380D02*
X125468000Y-68286380D01*
X125372761Y-68429238D01*
X125277523Y-68524476D01*
X125182285Y-68572095D01*
%TO.C,J2*%
X99020380Y-60785333D02*
X99734666Y-60785333D01*
X99877523Y-60832952D01*
X99972761Y-60928190D01*
X100020380Y-61071047D01*
X100020380Y-61166285D01*
X99115619Y-60356761D02*
X99068000Y-60309142D01*
X99020380Y-60213904D01*
X99020380Y-59975809D01*
X99068000Y-59880571D01*
X99115619Y-59832952D01*
X99210857Y-59785333D01*
X99306095Y-59785333D01*
X99448952Y-59832952D01*
X100020380Y-60404380D01*
X100020380Y-59785333D01*
%TO.C,J1*%
X134834380Y-61801333D02*
X135548666Y-61801333D01*
X135691523Y-61848952D01*
X135786761Y-61944190D01*
X135834380Y-62087047D01*
X135834380Y-62182285D01*
X135834380Y-60801333D02*
X135834380Y-61372761D01*
X135834380Y-61087047D02*
X134834380Y-61087047D01*
X134977238Y-61182285D01*
X135072476Y-61277523D01*
X135120095Y-61372761D01*
%TO.C,D1*%
X121181904Y-78430380D02*
X121181904Y-77430380D01*
X121420000Y-77430380D01*
X121562857Y-77478000D01*
X121658095Y-77573238D01*
X121705714Y-77668476D01*
X121753333Y-77858952D01*
X121753333Y-78001809D01*
X121705714Y-78192285D01*
X121658095Y-78287523D01*
X121562857Y-78382761D01*
X121420000Y-78430380D01*
X121181904Y-78430380D01*
X122705714Y-78430380D02*
X122134285Y-78430380D01*
X122420000Y-78430380D02*
X122420000Y-77430380D01*
X122324761Y-77573238D01*
X122229523Y-77668476D01*
X122134285Y-77716095D01*
%TO.C,C2*%
X119523142Y-63706666D02*
X119570761Y-63754285D01*
X119618380Y-63897142D01*
X119618380Y-63992380D01*
X119570761Y-64135238D01*
X119475523Y-64230476D01*
X119380285Y-64278095D01*
X119189809Y-64325714D01*
X119046952Y-64325714D01*
X118856476Y-64278095D01*
X118761238Y-64230476D01*
X118666000Y-64135238D01*
X118618380Y-63992380D01*
X118618380Y-63897142D01*
X118666000Y-63754285D01*
X118713619Y-63706666D01*
X118713619Y-63325714D02*
X118666000Y-63278095D01*
X118618380Y-63182857D01*
X118618380Y-62944761D01*
X118666000Y-62849523D01*
X118713619Y-62801904D01*
X118808857Y-62754285D01*
X118904095Y-62754285D01*
X119046952Y-62801904D01*
X119618380Y-63373333D01*
X119618380Y-62754285D01*
%TO.C,C1*%
X125243142Y-63686666D02*
X125290761Y-63734285D01*
X125338380Y-63877142D01*
X125338380Y-63972380D01*
X125290761Y-64115238D01*
X125195523Y-64210476D01*
X125100285Y-64258095D01*
X124909809Y-64305714D01*
X124766952Y-64305714D01*
X124576476Y-64258095D01*
X124481238Y-64210476D01*
X124386000Y-64115238D01*
X124338380Y-63972380D01*
X124338380Y-63877142D01*
X124386000Y-63734285D01*
X124433619Y-63686666D01*
X125338380Y-62734285D02*
X125338380Y-63305714D01*
X125338380Y-63020000D02*
X124338380Y-63020000D01*
X124481238Y-63115238D01*
X124576476Y-63210476D01*
X124624095Y-63305714D01*
%TD*%
M02*
