%TF.GenerationSoftware,KiCad,Pcbnew,5.1.6-c6e7f7d~86~ubuntu19.10.1*%
%TF.CreationDate,2020-07-11T11:49:28-04:00*%
%TF.ProjectId,ATtiny85-WS2812-Controller,41547469-6e79-4383-952d-575332383132,rev?*%
%TF.SameCoordinates,Original*%
%TF.FileFunction,Soldermask,Bot*%
%TF.FilePolarity,Negative*%
%FSLAX46Y46*%
G04 Gerber Fmt 4.6, Leading zero omitted, Abs format (unit mm)*
G04 Created by KiCad (PCBNEW 5.1.6-c6e7f7d~86~ubuntu19.10.1) date 2020-07-11 11:49:28*
%MOMM*%
%LPD*%
G01*
G04 APERTURE LIST*
%ADD10O,1.700000X1.700000*%
%ADD11R,1.700000X1.700000*%
%ADD12C,2.100000*%
%ADD13C,1.700000*%
%ADD14O,2.050000X1.800000*%
%ADD15R,3.600000X3.600000*%
%ADD16C,1.900000*%
%ADD17R,1.900000X1.900000*%
G04 APERTURE END LIST*
D10*
%TO.C,U1*%
X114046000Y-68580000D03*
X106426000Y-60960000D03*
X111506000Y-68580000D03*
X108966000Y-60960000D03*
X108966000Y-68580000D03*
X111506000Y-60960000D03*
X106426000Y-68580000D03*
D11*
X114046000Y-60960000D03*
%TD*%
D12*
%TO.C,SW2*%
X105306000Y-74930000D03*
X105306000Y-79430000D03*
X98806000Y-74930000D03*
X98806000Y-79430000D03*
%TD*%
%TO.C,SW1*%
X116990000Y-75184000D03*
X116990000Y-79684000D03*
X110490000Y-75184000D03*
X110490000Y-79684000D03*
%TD*%
D10*
%TO.C,R1*%
X120904000Y-71374000D03*
D13*
X128524000Y-71374000D03*
%TD*%
D14*
%TO.C,J2*%
X96266000Y-62564000D03*
X96266000Y-65064000D03*
G36*
G01*
X97026294Y-68464000D02*
X95505706Y-68464000D01*
G75*
G02*
X95241000Y-68199294I0J264706D01*
G01*
X95241000Y-66928706D01*
G75*
G02*
X95505706Y-66664000I264706J0D01*
G01*
X97026294Y-66664000D01*
G75*
G02*
X97291000Y-66928706I0J-264706D01*
G01*
X97291000Y-68199294D01*
G75*
G02*
X97026294Y-68464000I-264706J0D01*
G01*
G37*
%TD*%
%TO.C,J1*%
G36*
G01*
X135624000Y-64288000D02*
X137424000Y-64288000D01*
G75*
G02*
X138324000Y-65188000I0J-900000D01*
G01*
X138324000Y-66988000D01*
G75*
G02*
X137424000Y-67888000I-900000J0D01*
G01*
X135624000Y-67888000D01*
G75*
G02*
X134724000Y-66988000I0J900000D01*
G01*
X134724000Y-65188000D01*
G75*
G02*
X135624000Y-64288000I900000J0D01*
G01*
G37*
G36*
G01*
X140199000Y-61538000D02*
X142249000Y-61538000D01*
G75*
G02*
X143024000Y-62313000I0J-775000D01*
G01*
X143024000Y-63863000D01*
G75*
G02*
X142249000Y-64638000I-775000J0D01*
G01*
X140199000Y-64638000D01*
G75*
G02*
X139424000Y-63863000I0J775000D01*
G01*
X139424000Y-62313000D01*
G75*
G02*
X140199000Y-61538000I775000J0D01*
G01*
G37*
D15*
X141224000Y-69088000D03*
%TD*%
D16*
%TO.C,D1*%
X127508000Y-77978000D03*
D17*
X124968000Y-77978000D03*
%TD*%
D13*
%TO.C,C2*%
X121666000Y-61040000D03*
X121666000Y-66040000D03*
%TD*%
%TO.C,C1*%
X129286000Y-62270000D03*
D11*
X129286000Y-64770000D03*
%TD*%
M02*
