M48
INCH,TZ
T1C0.0315
T2C0.0354
T3C0.0374
T4C0.0394
T5C0.0433
%
G90
G05
T1
X47900Y-24031
X47900Y-26000
X50900Y-24516
X50900Y-25500
X41900Y-24000
X41900Y-27000
X42900Y-24000
X42900Y-27000
X43900Y-24000
X43900Y-27000
X44900Y-24000
X44900Y-27000
X47600Y-28100
X50600Y-28100
T2
X49200Y-30700
X50200Y-30700
T3
X37900Y-24631
X37900Y-25616
X37900Y-26600
T5
X38900Y-29500
X38900Y-31272
X41459Y-29500
X41459Y-31272
X43500Y-29600
X43500Y-31372
X46059Y-29600
X46059Y-31372
T4
G00X53750Y-25625
M15
G01X53750Y-26413
M16
G05
G00X55994Y-24838
M15
G01X55206Y-24838
M16
G05
G00X55994Y-27200
M15
G01X55206Y-27200
M16
G05
T0
M30
