%TF.GenerationSoftware,KiCad,Pcbnew,5.1.6-c6e7f7d~86~ubuntu19.10.1*%
%TF.CreationDate,2020-07-11T11:49:28-04:00*%
%TF.ProjectId,ATtiny85-WS2812-Controller,41547469-6e79-4383-952d-575332383132,rev?*%
%TF.SameCoordinates,Original*%
%TF.FileFunction,Legend,Bot*%
%TF.FilePolarity,Positive*%
%FSLAX46Y46*%
G04 Gerber Fmt 4.6, Leading zero omitted, Abs format (unit mm)*
G04 Created by KiCad (PCBNEW 5.1.6-c6e7f7d~86~ubuntu19.10.1) date 2020-07-11 11:49:28*
%MOMM*%
%LPD*%
G01*
G04 APERTURE LIST*
%ADD10C,0.150000*%
G04 APERTURE END LIST*
D10*
X142763714Y-66365428D02*
X142001809Y-66365428D01*
X142382761Y-66746380D02*
X142382761Y-65984476D01*
X141049428Y-65746380D02*
X141525619Y-65746380D01*
X141573238Y-66222571D01*
X141525619Y-66174952D01*
X141430380Y-66127333D01*
X141192285Y-66127333D01*
X141097047Y-66174952D01*
X141049428Y-66222571D01*
X141001809Y-66317809D01*
X141001809Y-66555904D01*
X141049428Y-66651142D01*
X141097047Y-66698761D01*
X141192285Y-66746380D01*
X141430380Y-66746380D01*
X141525619Y-66698761D01*
X141573238Y-66651142D01*
X140716095Y-65746380D02*
X140382761Y-66746380D01*
X140049428Y-65746380D01*
X141985904Y-59952000D02*
X142081142Y-59904380D01*
X142224000Y-59904380D01*
X142366857Y-59952000D01*
X142462095Y-60047238D01*
X142509714Y-60142476D01*
X142557333Y-60332952D01*
X142557333Y-60475809D01*
X142509714Y-60666285D01*
X142462095Y-60761523D01*
X142366857Y-60856761D01*
X142224000Y-60904380D01*
X142128761Y-60904380D01*
X141985904Y-60856761D01*
X141938285Y-60809142D01*
X141938285Y-60475809D01*
X142128761Y-60475809D01*
X141509714Y-60904380D02*
X141509714Y-59904380D01*
X140938285Y-60904380D01*
X140938285Y-59904380D01*
X140462095Y-60904380D02*
X140462095Y-59904380D01*
X140224000Y-59904380D01*
X140081142Y-59952000D01*
X139985904Y-60047238D01*
X139938285Y-60142476D01*
X139890666Y-60332952D01*
X139890666Y-60475809D01*
X139938285Y-60666285D01*
X139985904Y-60761523D01*
X140081142Y-60856761D01*
X140224000Y-60904380D01*
X140462095Y-60904380D01*
X131245904Y-79399380D02*
X130674476Y-79399380D01*
X130960190Y-80399380D02*
X130960190Y-79399380D01*
X130436380Y-79732714D02*
X130245904Y-80399380D01*
X130055428Y-79923190D01*
X129864952Y-80399380D01*
X129674476Y-79732714D01*
X129150666Y-80399380D02*
X129245904Y-80351761D01*
X129293523Y-80304142D01*
X129341142Y-80208904D01*
X129341142Y-79923190D01*
X129293523Y-79827952D01*
X129245904Y-79780333D01*
X129150666Y-79732714D01*
X129007809Y-79732714D01*
X128912571Y-79780333D01*
X128864952Y-79827952D01*
X128817333Y-79923190D01*
X128817333Y-80208904D01*
X128864952Y-80304142D01*
X128912571Y-80351761D01*
X129007809Y-80399380D01*
X129150666Y-80399380D01*
X127293523Y-79875571D02*
X127150666Y-79923190D01*
X127103047Y-79970809D01*
X127055428Y-80066047D01*
X127055428Y-80208904D01*
X127103047Y-80304142D01*
X127150666Y-80351761D01*
X127245904Y-80399380D01*
X127626857Y-80399380D01*
X127626857Y-79399380D01*
X127293523Y-79399380D01*
X127198285Y-79447000D01*
X127150666Y-79494619D01*
X127103047Y-79589857D01*
X127103047Y-79685095D01*
X127150666Y-79780333D01*
X127198285Y-79827952D01*
X127293523Y-79875571D01*
X127626857Y-79875571D01*
X126626857Y-80399380D02*
X126626857Y-79732714D01*
X126626857Y-79399380D02*
X126674476Y-79447000D01*
X126626857Y-79494619D01*
X126579238Y-79447000D01*
X126626857Y-79399380D01*
X126626857Y-79494619D01*
X126293523Y-79732714D02*
X125912571Y-79732714D01*
X126150666Y-79399380D02*
X126150666Y-80256523D01*
X126103047Y-80351761D01*
X126007809Y-80399380D01*
X125912571Y-80399380D01*
X124960190Y-79399380D02*
X124388761Y-79399380D01*
X124674476Y-80399380D02*
X124674476Y-79399380D01*
X124055428Y-80399380D02*
X124055428Y-79732714D01*
X124055428Y-79399380D02*
X124103047Y-79447000D01*
X124055428Y-79494619D01*
X124007809Y-79447000D01*
X124055428Y-79399380D01*
X124055428Y-79494619D01*
X123579238Y-79732714D02*
X123579238Y-80399380D01*
X123579238Y-79827952D02*
X123531619Y-79780333D01*
X123436380Y-79732714D01*
X123293523Y-79732714D01*
X123198285Y-79780333D01*
X123150666Y-79875571D01*
X123150666Y-80399380D01*
X122674476Y-80399380D02*
X122674476Y-79399380D01*
X122579238Y-80018428D02*
X122293523Y-80399380D01*
X122293523Y-79732714D02*
X122674476Y-80113666D01*
X121484000Y-80351761D02*
X121579238Y-80399380D01*
X121769714Y-80399380D01*
X121864952Y-80351761D01*
X121912571Y-80256523D01*
X121912571Y-79875571D01*
X121864952Y-79780333D01*
X121769714Y-79732714D01*
X121579238Y-79732714D01*
X121484000Y-79780333D01*
X121436380Y-79875571D01*
X121436380Y-79970809D01*
X121912571Y-80066047D01*
X121007809Y-80399380D02*
X121007809Y-79732714D01*
X121007809Y-79923190D02*
X120960190Y-79827952D01*
X120912571Y-79780333D01*
X120817333Y-79732714D01*
X120722095Y-79732714D01*
X135055428Y-82049380D02*
X135055428Y-81049380D01*
X134626857Y-82049380D02*
X134626857Y-81525571D01*
X134674476Y-81430333D01*
X134769714Y-81382714D01*
X134912571Y-81382714D01*
X135007809Y-81430333D01*
X135055428Y-81477952D01*
X134293523Y-81382714D02*
X133912571Y-81382714D01*
X134150666Y-81049380D02*
X134150666Y-81906523D01*
X134103047Y-82001761D01*
X134007809Y-82049380D01*
X133912571Y-82049380D01*
X133722095Y-81382714D02*
X133341142Y-81382714D01*
X133579238Y-81049380D02*
X133579238Y-81906523D01*
X133531619Y-82001761D01*
X133436380Y-82049380D01*
X133341142Y-82049380D01*
X133007809Y-81382714D02*
X133007809Y-82382714D01*
X133007809Y-81430333D02*
X132912571Y-81382714D01*
X132722095Y-81382714D01*
X132626857Y-81430333D01*
X132579238Y-81477952D01*
X132531619Y-81573190D01*
X132531619Y-81858904D01*
X132579238Y-81954142D01*
X132626857Y-82001761D01*
X132722095Y-82049380D01*
X132912571Y-82049380D01*
X133007809Y-82001761D01*
X132150666Y-82001761D02*
X132055428Y-82049380D01*
X131864952Y-82049380D01*
X131769714Y-82001761D01*
X131722095Y-81906523D01*
X131722095Y-81858904D01*
X131769714Y-81763666D01*
X131864952Y-81716047D01*
X132007809Y-81716047D01*
X132103047Y-81668428D01*
X132150666Y-81573190D01*
X132150666Y-81525571D01*
X132103047Y-81430333D01*
X132007809Y-81382714D01*
X131864952Y-81382714D01*
X131769714Y-81430333D01*
X131293523Y-81954142D02*
X131245904Y-82001761D01*
X131293523Y-82049380D01*
X131341142Y-82001761D01*
X131293523Y-81954142D01*
X131293523Y-82049380D01*
X131293523Y-81430333D02*
X131245904Y-81477952D01*
X131293523Y-81525571D01*
X131341142Y-81477952D01*
X131293523Y-81430333D01*
X131293523Y-81525571D01*
X130103047Y-81001761D02*
X130960190Y-82287476D01*
X129055428Y-81001761D02*
X129912571Y-82287476D01*
X128864952Y-81382714D02*
X128484000Y-81382714D01*
X128722095Y-81049380D02*
X128722095Y-81906523D01*
X128674476Y-82001761D01*
X128579238Y-82049380D01*
X128484000Y-82049380D01*
X128245904Y-81382714D02*
X128055428Y-82049380D01*
X127864952Y-81573190D01*
X127674476Y-82049380D01*
X127484000Y-81382714D01*
X126960190Y-82049380D02*
X127055428Y-82001761D01*
X127103047Y-81954142D01*
X127150666Y-81858904D01*
X127150666Y-81573190D01*
X127103047Y-81477952D01*
X127055428Y-81430333D01*
X126960190Y-81382714D01*
X126817333Y-81382714D01*
X126722095Y-81430333D01*
X126674476Y-81477952D01*
X126626857Y-81573190D01*
X126626857Y-81858904D01*
X126674476Y-81954142D01*
X126722095Y-82001761D01*
X126817333Y-82049380D01*
X126960190Y-82049380D01*
X126198285Y-82049380D02*
X126198285Y-81049380D01*
X126198285Y-81430333D02*
X126103047Y-81382714D01*
X125912571Y-81382714D01*
X125817333Y-81430333D01*
X125769714Y-81477952D01*
X125722095Y-81573190D01*
X125722095Y-81858904D01*
X125769714Y-81954142D01*
X125817333Y-82001761D01*
X125912571Y-82049380D01*
X126103047Y-82049380D01*
X126198285Y-82001761D01*
X125293523Y-82049380D02*
X125293523Y-81382714D01*
X125293523Y-81049380D02*
X125341142Y-81097000D01*
X125293523Y-81144619D01*
X125245904Y-81097000D01*
X125293523Y-81049380D01*
X125293523Y-81144619D01*
X124960190Y-81382714D02*
X124579238Y-81382714D01*
X124817333Y-81049380D02*
X124817333Y-81906523D01*
X124769714Y-82001761D01*
X124674476Y-82049380D01*
X124579238Y-82049380D01*
X124388761Y-81382714D02*
X124007809Y-81382714D01*
X124245904Y-81049380D02*
X124245904Y-81906523D01*
X124198285Y-82001761D01*
X124103047Y-82049380D01*
X124007809Y-82049380D01*
X123674476Y-82049380D02*
X123674476Y-81382714D01*
X123674476Y-81049380D02*
X123722095Y-81097000D01*
X123674476Y-81144619D01*
X123626857Y-81097000D01*
X123674476Y-81049380D01*
X123674476Y-81144619D01*
X123198285Y-81382714D02*
X123198285Y-82049380D01*
X123198285Y-81477952D02*
X123150666Y-81430333D01*
X123055428Y-81382714D01*
X122912571Y-81382714D01*
X122817333Y-81430333D01*
X122769714Y-81525571D01*
X122769714Y-82049380D01*
X122293523Y-82049380D02*
X122293523Y-81049380D01*
X122198285Y-81668428D02*
X121912571Y-82049380D01*
X121912571Y-81382714D02*
X122293523Y-81763666D01*
X121103047Y-82001761D02*
X121198285Y-82049380D01*
X121388761Y-82049380D01*
X121484000Y-82001761D01*
X121531619Y-81906523D01*
X121531619Y-81525571D01*
X121484000Y-81430333D01*
X121388761Y-81382714D01*
X121198285Y-81382714D01*
X121103047Y-81430333D01*
X121055428Y-81525571D01*
X121055428Y-81620809D01*
X121531619Y-81716047D01*
X120626857Y-82049380D02*
X120626857Y-81382714D01*
X120626857Y-81573190D02*
X120579238Y-81477952D01*
X120531619Y-81430333D01*
X120436380Y-81382714D01*
X120341142Y-81382714D01*
X120007809Y-81954142D02*
X119960190Y-82001761D01*
X120007809Y-82049380D01*
X120055428Y-82001761D01*
X120007809Y-81954142D01*
X120007809Y-82049380D01*
X119103047Y-82001761D02*
X119198285Y-82049380D01*
X119388761Y-82049380D01*
X119484000Y-82001761D01*
X119531619Y-81954142D01*
X119579238Y-81858904D01*
X119579238Y-81573190D01*
X119531619Y-81477952D01*
X119484000Y-81430333D01*
X119388761Y-81382714D01*
X119198285Y-81382714D01*
X119103047Y-81430333D01*
X118531619Y-82049380D02*
X118626857Y-82001761D01*
X118674476Y-81954142D01*
X118722095Y-81858904D01*
X118722095Y-81573190D01*
X118674476Y-81477952D01*
X118626857Y-81430333D01*
X118531619Y-81382714D01*
X118388761Y-81382714D01*
X118293523Y-81430333D01*
X118245904Y-81477952D01*
X118198285Y-81573190D01*
X118198285Y-81858904D01*
X118245904Y-81954142D01*
X118293523Y-82001761D01*
X118388761Y-82049380D01*
X118531619Y-82049380D01*
X117769714Y-82049380D02*
X117769714Y-81382714D01*
X117769714Y-81477952D02*
X117722095Y-81430333D01*
X117626857Y-81382714D01*
X117484000Y-81382714D01*
X117388761Y-81430333D01*
X117341142Y-81525571D01*
X117341142Y-82049380D01*
X117341142Y-81525571D02*
X117293523Y-81430333D01*
X117198285Y-81382714D01*
X117055428Y-81382714D01*
X116960190Y-81430333D01*
X116912571Y-81525571D01*
X116912571Y-82049380D01*
X126569619Y-63857666D02*
X126093428Y-63857666D01*
X126664857Y-64143380D02*
X126331523Y-63143380D01*
X125998190Y-64143380D01*
X125807714Y-63143380D02*
X125236285Y-63143380D01*
X125522000Y-64143380D02*
X125522000Y-63143380D01*
X125045809Y-63476714D02*
X124664857Y-63476714D01*
X124902952Y-63143380D02*
X124902952Y-64000523D01*
X124855333Y-64095761D01*
X124760095Y-64143380D01*
X124664857Y-64143380D01*
X124331523Y-64143380D02*
X124331523Y-63476714D01*
X124331523Y-63143380D02*
X124379142Y-63191000D01*
X124331523Y-63238619D01*
X124283904Y-63191000D01*
X124331523Y-63143380D01*
X124331523Y-63238619D01*
X123855333Y-63476714D02*
X123855333Y-64143380D01*
X123855333Y-63571952D02*
X123807714Y-63524333D01*
X123712476Y-63476714D01*
X123569619Y-63476714D01*
X123474380Y-63524333D01*
X123426761Y-63619571D01*
X123426761Y-64143380D01*
X123045809Y-63476714D02*
X122807714Y-64143380D01*
X122569619Y-63476714D02*
X122807714Y-64143380D01*
X122902952Y-64381476D01*
X122950571Y-64429095D01*
X123045809Y-64476714D01*
X122045809Y-63571952D02*
X122141047Y-63524333D01*
X122188666Y-63476714D01*
X122236285Y-63381476D01*
X122236285Y-63333857D01*
X122188666Y-63238619D01*
X122141047Y-63191000D01*
X122045809Y-63143380D01*
X121855333Y-63143380D01*
X121760095Y-63191000D01*
X121712476Y-63238619D01*
X121664857Y-63333857D01*
X121664857Y-63381476D01*
X121712476Y-63476714D01*
X121760095Y-63524333D01*
X121855333Y-63571952D01*
X122045809Y-63571952D01*
X122141047Y-63619571D01*
X122188666Y-63667190D01*
X122236285Y-63762428D01*
X122236285Y-63952904D01*
X122188666Y-64048142D01*
X122141047Y-64095761D01*
X122045809Y-64143380D01*
X121855333Y-64143380D01*
X121760095Y-64095761D01*
X121712476Y-64048142D01*
X121664857Y-63952904D01*
X121664857Y-63762428D01*
X121712476Y-63667190D01*
X121760095Y-63619571D01*
X121855333Y-63571952D01*
X120760095Y-63143380D02*
X121236285Y-63143380D01*
X121283904Y-63619571D01*
X121236285Y-63571952D01*
X121141047Y-63524333D01*
X120902952Y-63524333D01*
X120807714Y-63571952D01*
X120760095Y-63619571D01*
X120712476Y-63714809D01*
X120712476Y-63952904D01*
X120760095Y-64048142D01*
X120807714Y-64095761D01*
X120902952Y-64143380D01*
X121141047Y-64143380D01*
X121236285Y-64095761D01*
X121283904Y-64048142D01*
X119617238Y-63143380D02*
X119379142Y-64143380D01*
X119188666Y-63429095D01*
X118998190Y-64143380D01*
X118760095Y-63143380D01*
X118426761Y-64095761D02*
X118283904Y-64143380D01*
X118045809Y-64143380D01*
X117950571Y-64095761D01*
X117902952Y-64048142D01*
X117855333Y-63952904D01*
X117855333Y-63857666D01*
X117902952Y-63762428D01*
X117950571Y-63714809D01*
X118045809Y-63667190D01*
X118236285Y-63619571D01*
X118331523Y-63571952D01*
X118379142Y-63524333D01*
X118426761Y-63429095D01*
X118426761Y-63333857D01*
X118379142Y-63238619D01*
X118331523Y-63191000D01*
X118236285Y-63143380D01*
X117998190Y-63143380D01*
X117855333Y-63191000D01*
X117474380Y-63238619D02*
X117426761Y-63191000D01*
X117331523Y-63143380D01*
X117093428Y-63143380D01*
X116998190Y-63191000D01*
X116950571Y-63238619D01*
X116902952Y-63333857D01*
X116902952Y-63429095D01*
X116950571Y-63571952D01*
X117522000Y-64143380D01*
X116902952Y-64143380D01*
X116331523Y-63571952D02*
X116426761Y-63524333D01*
X116474380Y-63476714D01*
X116522000Y-63381476D01*
X116522000Y-63333857D01*
X116474380Y-63238619D01*
X116426761Y-63191000D01*
X116331523Y-63143380D01*
X116141047Y-63143380D01*
X116045809Y-63191000D01*
X115998190Y-63238619D01*
X115950571Y-63333857D01*
X115950571Y-63381476D01*
X115998190Y-63476714D01*
X116045809Y-63524333D01*
X116141047Y-63571952D01*
X116331523Y-63571952D01*
X116426761Y-63619571D01*
X116474380Y-63667190D01*
X116522000Y-63762428D01*
X116522000Y-63952904D01*
X116474380Y-64048142D01*
X116426761Y-64095761D01*
X116331523Y-64143380D01*
X116141047Y-64143380D01*
X116045809Y-64095761D01*
X115998190Y-64048142D01*
X115950571Y-63952904D01*
X115950571Y-63762428D01*
X115998190Y-63667190D01*
X116045809Y-63619571D01*
X116141047Y-63571952D01*
X114998190Y-64143380D02*
X115569619Y-64143380D01*
X115283904Y-64143380D02*
X115283904Y-63143380D01*
X115379142Y-63286238D01*
X115474380Y-63381476D01*
X115569619Y-63429095D01*
X114617238Y-63238619D02*
X114569619Y-63191000D01*
X114474380Y-63143380D01*
X114236285Y-63143380D01*
X114141047Y-63191000D01*
X114093428Y-63238619D01*
X114045809Y-63333857D01*
X114045809Y-63429095D01*
X114093428Y-63571952D01*
X114664857Y-64143380D01*
X114045809Y-64143380D01*
X112379142Y-64143380D02*
X112855333Y-64143380D01*
X112855333Y-63143380D01*
X112045809Y-63619571D02*
X111712476Y-63619571D01*
X111569619Y-64143380D02*
X112045809Y-64143380D01*
X112045809Y-63143380D01*
X111569619Y-63143380D01*
X111141047Y-64143380D02*
X111141047Y-63143380D01*
X110902952Y-63143380D01*
X110760095Y-63191000D01*
X110664857Y-63286238D01*
X110617238Y-63381476D01*
X110569619Y-63571952D01*
X110569619Y-63714809D01*
X110617238Y-63905285D01*
X110664857Y-64000523D01*
X110760095Y-64095761D01*
X110902952Y-64143380D01*
X111141047Y-64143380D01*
X108807714Y-64048142D02*
X108855333Y-64095761D01*
X108998190Y-64143380D01*
X109093428Y-64143380D01*
X109236285Y-64095761D01*
X109331523Y-64000523D01*
X109379142Y-63905285D01*
X109426761Y-63714809D01*
X109426761Y-63571952D01*
X109379142Y-63381476D01*
X109331523Y-63286238D01*
X109236285Y-63191000D01*
X109093428Y-63143380D01*
X108998190Y-63143380D01*
X108855333Y-63191000D01*
X108807714Y-63238619D01*
X108236285Y-64143380D02*
X108331523Y-64095761D01*
X108379142Y-64048142D01*
X108426761Y-63952904D01*
X108426761Y-63667190D01*
X108379142Y-63571952D01*
X108331523Y-63524333D01*
X108236285Y-63476714D01*
X108093428Y-63476714D01*
X107998190Y-63524333D01*
X107950571Y-63571952D01*
X107902952Y-63667190D01*
X107902952Y-63952904D01*
X107950571Y-64048142D01*
X107998190Y-64095761D01*
X108093428Y-64143380D01*
X108236285Y-64143380D01*
X107474380Y-63476714D02*
X107474380Y-64143380D01*
X107474380Y-63571952D02*
X107426761Y-63524333D01*
X107331523Y-63476714D01*
X107188666Y-63476714D01*
X107093428Y-63524333D01*
X107045809Y-63619571D01*
X107045809Y-64143380D01*
X106712476Y-63476714D02*
X106331523Y-63476714D01*
X106569619Y-63143380D02*
X106569619Y-64000523D01*
X106522000Y-64095761D01*
X106426761Y-64143380D01*
X106331523Y-64143380D01*
X105998190Y-64143380D02*
X105998190Y-63476714D01*
X105998190Y-63667190D02*
X105950571Y-63571952D01*
X105902952Y-63524333D01*
X105807714Y-63476714D01*
X105712476Y-63476714D01*
X105236285Y-64143380D02*
X105331523Y-64095761D01*
X105379142Y-64048142D01*
X105426761Y-63952904D01*
X105426761Y-63667190D01*
X105379142Y-63571952D01*
X105331523Y-63524333D01*
X105236285Y-63476714D01*
X105093428Y-63476714D01*
X104998190Y-63524333D01*
X104950571Y-63571952D01*
X104902952Y-63667190D01*
X104902952Y-63952904D01*
X104950571Y-64048142D01*
X104998190Y-64095761D01*
X105093428Y-64143380D01*
X105236285Y-64143380D01*
X104331523Y-64143380D02*
X104426761Y-64095761D01*
X104474380Y-64000523D01*
X104474380Y-63143380D01*
X103807714Y-64143380D02*
X103902952Y-64095761D01*
X103950571Y-64000523D01*
X103950571Y-63143380D01*
X103045809Y-64095761D02*
X103141047Y-64143380D01*
X103331523Y-64143380D01*
X103426761Y-64095761D01*
X103474380Y-64000523D01*
X103474380Y-63619571D01*
X103426761Y-63524333D01*
X103331523Y-63476714D01*
X103141047Y-63476714D01*
X103045809Y-63524333D01*
X102998190Y-63619571D01*
X102998190Y-63714809D01*
X103474380Y-63810047D01*
X102569619Y-64143380D02*
X102569619Y-63476714D01*
X102569619Y-63667190D02*
X102522000Y-63571952D01*
X102474380Y-63524333D01*
X102379142Y-63476714D01*
X102283904Y-63476714D01*
X101283904Y-63476714D02*
X101045809Y-64143380D01*
X100807714Y-63476714D01*
X99902952Y-64143380D02*
X100474380Y-64143380D01*
X100188666Y-64143380D02*
X100188666Y-63143380D01*
X100283904Y-63286238D01*
X100379142Y-63381476D01*
X100474380Y-63429095D01*
X99474380Y-64048142D02*
X99426761Y-64095761D01*
X99474380Y-64143380D01*
X99522000Y-64095761D01*
X99474380Y-64048142D01*
X99474380Y-64143380D01*
X98807714Y-63143380D02*
X98712476Y-63143380D01*
X98617238Y-63191000D01*
X98569619Y-63238619D01*
X98522000Y-63333857D01*
X98474380Y-63524333D01*
X98474380Y-63762428D01*
X98522000Y-63952904D01*
X98569619Y-64048142D01*
X98617238Y-64095761D01*
X98712476Y-64143380D01*
X98807714Y-64143380D01*
X98902952Y-64095761D01*
X98950571Y-64048142D01*
X98998190Y-63952904D01*
X99045809Y-63762428D01*
X99045809Y-63524333D01*
X98998190Y-63333857D01*
X98950571Y-63238619D01*
X98902952Y-63191000D01*
X98807714Y-63143380D01*
X117641047Y-65793380D02*
X117641047Y-64793380D01*
X117641047Y-65174333D02*
X117545809Y-65126714D01*
X117355333Y-65126714D01*
X117260095Y-65174333D01*
X117212476Y-65221952D01*
X117164857Y-65317190D01*
X117164857Y-65602904D01*
X117212476Y-65698142D01*
X117260095Y-65745761D01*
X117355333Y-65793380D01*
X117545809Y-65793380D01*
X117641047Y-65745761D01*
X116831523Y-65126714D02*
X116593428Y-65793380D01*
X116355333Y-65126714D02*
X116593428Y-65793380D01*
X116688666Y-66031476D01*
X116736285Y-66079095D01*
X116831523Y-66126714D01*
X115212476Y-65793380D02*
X115212476Y-64793380D01*
X114831523Y-64793380D01*
X114736285Y-64841000D01*
X114688666Y-64888619D01*
X114641047Y-64983857D01*
X114641047Y-65126714D01*
X114688666Y-65221952D01*
X114736285Y-65269571D01*
X114831523Y-65317190D01*
X115212476Y-65317190D01*
X113783904Y-65793380D02*
X113783904Y-65269571D01*
X113831523Y-65174333D01*
X113926761Y-65126714D01*
X114117238Y-65126714D01*
X114212476Y-65174333D01*
X113783904Y-65745761D02*
X113879142Y-65793380D01*
X114117238Y-65793380D01*
X114212476Y-65745761D01*
X114260095Y-65650523D01*
X114260095Y-65555285D01*
X114212476Y-65460047D01*
X114117238Y-65412428D01*
X113879142Y-65412428D01*
X113783904Y-65364809D01*
X112879142Y-65126714D02*
X112879142Y-65793380D01*
X113307714Y-65126714D02*
X113307714Y-65650523D01*
X113260095Y-65745761D01*
X113164857Y-65793380D01*
X113022000Y-65793380D01*
X112926761Y-65745761D01*
X112879142Y-65698142D01*
X112260095Y-65793380D02*
X112355333Y-65745761D01*
X112402952Y-65650523D01*
X112402952Y-64793380D01*
X111117238Y-65793380D02*
X111117238Y-64793380D01*
X110736285Y-64793380D01*
X110641047Y-64841000D01*
X110593428Y-64888619D01*
X110545809Y-64983857D01*
X110545809Y-65126714D01*
X110593428Y-65221952D01*
X110641047Y-65269571D01*
X110736285Y-65317190D01*
X111117238Y-65317190D01*
X109688666Y-65793380D02*
X109688666Y-65269571D01*
X109736285Y-65174333D01*
X109831523Y-65126714D01*
X110022000Y-65126714D01*
X110117238Y-65174333D01*
X109688666Y-65745761D02*
X109783904Y-65793380D01*
X110022000Y-65793380D01*
X110117238Y-65745761D01*
X110164857Y-65650523D01*
X110164857Y-65555285D01*
X110117238Y-65460047D01*
X110022000Y-65412428D01*
X109783904Y-65412428D01*
X109688666Y-65364809D01*
X108783904Y-65126714D02*
X108783904Y-65936238D01*
X108831523Y-66031476D01*
X108879142Y-66079095D01*
X108974380Y-66126714D01*
X109117238Y-66126714D01*
X109212476Y-66079095D01*
X108783904Y-65745761D02*
X108879142Y-65793380D01*
X109069619Y-65793380D01*
X109164857Y-65745761D01*
X109212476Y-65698142D01*
X109260095Y-65602904D01*
X109260095Y-65317190D01*
X109212476Y-65221952D01*
X109164857Y-65174333D01*
X109069619Y-65126714D01*
X108879142Y-65126714D01*
X108783904Y-65174333D01*
X107926761Y-65745761D02*
X108022000Y-65793380D01*
X108212476Y-65793380D01*
X108307714Y-65745761D01*
X108355333Y-65650523D01*
X108355333Y-65269571D01*
X108307714Y-65174333D01*
X108212476Y-65126714D01*
X108022000Y-65126714D01*
X107926761Y-65174333D01*
X107879142Y-65269571D01*
X107879142Y-65364809D01*
X108355333Y-65460047D01*
X107307714Y-65793380D02*
X107402952Y-65745761D01*
X107450571Y-65650523D01*
X107450571Y-64793380D01*
M02*
